ISO-10303-21;
HEADER;
FILE_DESCRIPTION(('FreeCAD Model'),'2;1');
FILE_NAME('Open CASCADE Shape Model','2026-07-30T21:39:23',(''),(''),
  'Open CASCADE STEP processor 7.8','FreeCAD','Unknown');
FILE_SCHEMA((
'AP242_MANAGED_MODEL_BASED_3D_ENGINEERING_MIM_LF. {1 0 10303 442 1 1 4 
}'));
ENDSEC;
DATA;
#1 = APPLICATION_PROTOCOL_DEFINITION('international standard',
  'ap242_managed_model_based_3d_engineering',2013,#2);
#2 = APPLICATION_CONTEXT('Managed model based 3d engineering');
#3 = SHAPE_DEFINITION_REPRESENTATION(#4,#10);
#4 = PRODUCT_DEFINITION_SHAPE('','',#5);
#5 = PRODUCT_DEFINITION('design','',#6,#9);
#6 = PRODUCT_DEFINITION_FORMATION('','',#7);
#7 = PRODUCT('Enclosure','Enclosure','',(#8));
#8 = PRODUCT_CONTEXT('',#2,'mechanical');
#9 = PRODUCT_DEFINITION_CONTEXT('part definition',#2,'design');
#10 = ADVANCED_BREP_SHAPE_REPRESENTATION('',(#11,#15),#1247);
#11 = AXIS2_PLACEMENT_3D('',#12,#13,#14);
#12 = CARTESIAN_POINT('',(0.,0.,0.));
#13 = DIRECTION('',(0.,0.,1.));
#14 = DIRECTION('',(1.,0.,-0.));
#15 = MANIFOLD_SOLID_BREP('',#16);
#16 = CLOSED_SHELL('',(#17,#81,#222,#246,#270,#294,#325,#349,#366,#390,
    #414,#462,#486,#503,#528,#553,#584,#624,#664,#681,#706,#731,#747,
    #771,#869,#893,#910,#927,#943,#960,#977,#994,#1006,#1015,#1024,#1041
    ,#1053,#1062,#1071,#1096,#1127,#1151,#1175,#1192,#1217,#1226,#1238)
  );
#17 = ADVANCED_FACE('',(#18),#76,.F.);
#18 = FACE_BOUND('',#19,.F.);
#19 = EDGE_LOOP('',(#20,#30,#38,#46,#54,#62,#70));
#20 = ORIENTED_EDGE('',*,*,#21,.F.);
#21 = EDGE_CURVE('',#22,#24,#26,.T.);
#22 = VERTEX_POINT('',#23);
#23 = CARTESIAN_POINT('',(103.,50.,-7.5));
#24 = VERTEX_POINT('',#25);
#25 = CARTESIAN_POINT('',(-103.,50.,-7.5));
#26 = LINE('',#27,#28);
#27 = CARTESIAN_POINT('',(105.,50.,-7.5));
#28 = VECTOR('',#29,1.);
#29 = DIRECTION('',(-1.,0.,0.));
#30 = ORIENTED_EDGE('',*,*,#31,.T.);
#31 = EDGE_CURVE('',#22,#32,#34,.T.);
#32 = VERTEX_POINT('',#33);
#33 = CARTESIAN_POINT('',(103.,50.,10.5));
#34 = LINE('',#35,#36);
#35 = CARTESIAN_POINT('',(103.,50.,-7.5));
#36 = VECTOR('',#37,1.);
#37 = DIRECTION('',(0.,0.,1.));
#38 = ORIENTED_EDGE('',*,*,#39,.F.);
#39 = EDGE_CURVE('',#40,#32,#42,.T.);
#40 = VERTEX_POINT('',#41);
#41 = CARTESIAN_POINT('',(102.17157287525,50.,12.5));
#42 = LINE('',#43,#44);
#43 = CARTESIAN_POINT('',(105.91421356237,50.,3.464466094067));
#44 = VECTOR('',#45,1.);
#45 = DIRECTION('',(0.382683432365,0.,-0.923879532511));
#46 = ORIENTED_EDGE('',*,*,#47,.F.);
#47 = EDGE_CURVE('',#48,#40,#50,.T.);
#48 = VERTEX_POINT('',#49);
#49 = CARTESIAN_POINT('',(85.,50.,29.671572875254));
#50 = LINE('',#51,#52);
#51 = CARTESIAN_POINT('',(83.585786437627,50.,31.085786437627));
#52 = VECTOR('',#53,1.);
#53 = DIRECTION('',(0.707106781187,0.,-0.707106781187));
#54 = ORIENTED_EDGE('',*,*,#55,.F.);
#55 = EDGE_CURVE('',#56,#48,#58,.T.);
#56 = VERTEX_POINT('',#57);
#57 = CARTESIAN_POINT('',(83.,50.,30.5));
#58 = LINE('',#59,#60);
#59 = CARTESIAN_POINT('',(99.106601717798,50.,23.828427124746));
#60 = VECTOR('',#61,1.);
#61 = DIRECTION('',(0.923879532511,0.,-0.382683432365));
#62 = ORIENTED_EDGE('',*,*,#63,.T.);
#63 = EDGE_CURVE('',#56,#64,#66,.T.);
#64 = VERTEX_POINT('',#65);
#65 = CARTESIAN_POINT('',(-103.,50.,30.5));
#66 = LINE('',#67,#68);
#67 = CARTESIAN_POINT('',(85.,50.,30.5));
#68 = VECTOR('',#69,1.);
#69 = DIRECTION('',(-1.,0.,0.));
#70 = ORIENTED_EDGE('',*,*,#71,.F.);
#71 = EDGE_CURVE('',#24,#64,#72,.T.);
#72 = LINE('',#73,#74);
#73 = CARTESIAN_POINT('',(-103.,50.,-7.5));
#74 = VECTOR('',#75,1.);
#75 = DIRECTION('',(0.,0.,1.));
#76 = PLANE('',#77);
#77 = AXIS2_PLACEMENT_3D('',#78,#79,#80);
#78 = CARTESIAN_POINT('',(105.,50.,-7.5));
#79 = DIRECTION('',(0.,-1.,0.));
#80 = DIRECTION('',(-1.,0.,0.));
#81 = ADVANCED_FACE('',(#82,#139,#150,#161,#195,#206),#217,.F.);
#82 = FACE_BOUND('',#83,.F.);
#83 = EDGE_LOOP('',(#84,#94,#102,#110,#118,#126,#132,#133));
#84 = ORIENTED_EDGE('',*,*,#85,.T.);
#85 = EDGE_CURVE('',#86,#88,#90,.T.);
#86 = VERTEX_POINT('',#87);
#87 = CARTESIAN_POINT('',(-105.,48.,-7.5));
#88 = VERTEX_POINT('',#89);
#89 = CARTESIAN_POINT('',(-105.,-48.,-7.5));
#90 = LINE('',#91,#92);
#91 = CARTESIAN_POINT('',(-105.,50.,-7.5));
#92 = VECTOR('',#93,1.);
#93 = DIRECTION('',(0.,-1.,0.));
#94 = ORIENTED_EDGE('',*,*,#95,.T.);
#95 = EDGE_CURVE('',#88,#96,#98,.T.);
#96 = VERTEX_POINT('',#97);
#97 = CARTESIAN_POINT('',(-103.,-50.,-7.5));
#98 = LINE('',#99,#100);
#99 = CARTESIAN_POINT('',(-90.25,-62.75,-7.5));
#100 = VECTOR('',#101,1.);
#101 = DIRECTION('',(0.707106781187,-0.707106781187,0.));
#102 = ORIENTED_EDGE('',*,*,#103,.T.);
#103 = EDGE_CURVE('',#96,#104,#106,.T.);
#104 = VERTEX_POINT('',#105);
#105 = CARTESIAN_POINT('',(103.,-50.,-7.5));
#106 = LINE('',#107,#108);
#107 = CARTESIAN_POINT('',(-105.,-50.,-7.5));
#108 = VECTOR('',#109,1.);
#109 = DIRECTION('',(1.,0.,0.));
#110 = ORIENTED_EDGE('',*,*,#111,.F.);
#111 = EDGE_CURVE('',#112,#104,#114,.T.);
#112 = VERTEX_POINT('',#113);
#113 = CARTESIAN_POINT('',(105.,-48.,-7.5));
#114 = LINE('',#115,#116);
#115 = CARTESIAN_POINT('',(90.25,-62.75,-7.5));
#116 = VECTOR('',#117,1.);
#117 = DIRECTION('',(-0.707106781187,-0.707106781187,0.));
#118 = ORIENTED_EDGE('',*,*,#119,.T.);
#119 = EDGE_CURVE('',#112,#120,#122,.T.);
#120 = VERTEX_POINT('',#121);
#121 = CARTESIAN_POINT('',(105.,48.,-7.5));
#122 = LINE('',#123,#124);
#123 = CARTESIAN_POINT('',(105.,-50.,-7.5));
#124 = VECTOR('',#125,1.);
#125 = DIRECTION('',(0.,1.,0.));
#126 = ORIENTED_EDGE('',*,*,#127,.F.);
#127 = EDGE_CURVE('',#22,#120,#128,.T.);
#128 = LINE('',#129,#130);
#129 = CARTESIAN_POINT('',(90.25,62.75,-7.5));
#130 = VECTOR('',#131,1.);
#131 = DIRECTION('',(0.707106781187,-0.707106781187,0.));
#132 = ORIENTED_EDGE('',*,*,#21,.T.);
#133 = ORIENTED_EDGE('',*,*,#134,.T.);
#134 = EDGE_CURVE('',#24,#86,#135,.T.);
#135 = LINE('',#136,#137);
#136 = CARTESIAN_POINT('',(-90.25,62.75,-7.5));
#137 = VECTOR('',#138,1.);
#138 = DIRECTION('',(-0.707106781187,-0.707106781187,0.));
#139 = FACE_BOUND('',#140,.F.);
#140 = EDGE_LOOP('',(#141));
#141 = ORIENTED_EDGE('',*,*,#142,.T.);
#142 = EDGE_CURVE('',#143,#143,#145,.T.);
#143 = VERTEX_POINT('',#144);
#144 = CARTESIAN_POINT('',(-91.9,-41.,-7.5));
#145 = CIRCLE('',#146,4.1);
#146 = AXIS2_PLACEMENT_3D('',#147,#148,#149);
#147 = CARTESIAN_POINT('',(-96.,-41.,-7.5));
#148 = DIRECTION('',(0.,0.,-1.));
#149 = DIRECTION('',(1.,0.,0.));
#150 = FACE_BOUND('',#151,.F.);
#151 = EDGE_LOOP('',(#152));
#152 = ORIENTED_EDGE('',*,*,#153,.T.);
#153 = EDGE_CURVE('',#154,#154,#156,.T.);
#154 = VERTEX_POINT('',#155);
#155 = CARTESIAN_POINT('',(100.10000000006,-41.00000000006,-7.5));
#156 = CIRCLE('',#157,4.1);
#157 = AXIS2_PLACEMENT_3D('',#158,#159,#160);
#158 = CARTESIAN_POINT('',(96.000000000063,-41.00000000006,-7.5));
#159 = DIRECTION('',(0.,0.,-1.));
#160 = DIRECTION('',(1.,0.,0.));
#161 = FACE_BOUND('',#162,.F.);
#162 = EDGE_LOOP('',(#163,#173,#181,#189));
#163 = ORIENTED_EDGE('',*,*,#164,.T.);
#164 = EDGE_CURVE('',#165,#167,#169,.T.);
#165 = VERTEX_POINT('',#166);
#166 = CARTESIAN_POINT('',(-90.,-42.,-7.5));
#167 = VERTEX_POINT('',#168);
#168 = CARTESIAN_POINT('',(-90.,42.,-7.5));
#169 = LINE('',#170,#171);
#170 = CARTESIAN_POINT('',(-90.,-42.,-7.5));
#171 = VECTOR('',#172,1.);
#172 = DIRECTION('',(0.,1.,0.));
#173 = ORIENTED_EDGE('',*,*,#174,.F.);
#174 = EDGE_CURVE('',#175,#167,#177,.T.);
#175 = VERTEX_POINT('',#176);
#176 = CARTESIAN_POINT('',(77.,42.,-7.5));
#177 = LINE('',#178,#179);
#178 = CARTESIAN_POINT('',(38.5,42.,-7.5));
#179 = VECTOR('',#180,1.);
#180 = DIRECTION('',(-1.,0.,0.));
#181 = ORIENTED_EDGE('',*,*,#182,.F.);
#182 = EDGE_CURVE('',#183,#175,#185,.T.);
#183 = VERTEX_POINT('',#184);
#184 = CARTESIAN_POINT('',(77.,-42.,-7.5));
#185 = LINE('',#186,#187);
#186 = CARTESIAN_POINT('',(77.,-21.,-7.5));
#187 = VECTOR('',#188,1.);
#188 = DIRECTION('',(0.,1.,0.));
#189 = ORIENTED_EDGE('',*,*,#190,.T.);
#190 = EDGE_CURVE('',#183,#165,#191,.T.);
#191 = LINE('',#192,#193);
#192 = CARTESIAN_POINT('',(-21.,-42.,-7.5));
#193 = VECTOR('',#194,1.);
#194 = DIRECTION('',(-1.,0.,0.));
#195 = FACE_BOUND('',#196,.F.);
#196 = EDGE_LOOP('',(#197));
#197 = ORIENTED_EDGE('',*,*,#198,.T.);
#198 = EDGE_CURVE('',#199,#199,#201,.T.);
#199 = VERTEX_POINT('',#200);
#200 = CARTESIAN_POINT('',(-91.9,41.,-7.5));
#201 = CIRCLE('',#202,4.1);
#202 = AXIS2_PLACEMENT_3D('',#203,#204,#205);
#203 = CARTESIAN_POINT('',(-96.,41.,-7.5));
#204 = DIRECTION('',(0.,0.,-1.));
#205 = DIRECTION('',(1.,0.,0.));
#206 = FACE_BOUND('',#207,.F.);
#207 = EDGE_LOOP('',(#208));
#208 = ORIENTED_EDGE('',*,*,#209,.T.);
#209 = EDGE_CURVE('',#210,#210,#212,.T.);
#210 = VERTEX_POINT('',#211);
#211 = CARTESIAN_POINT('',(100.1,41.,-7.5));
#212 = CIRCLE('',#213,4.1);
#213 = AXIS2_PLACEMENT_3D('',#214,#215,#216);
#214 = CARTESIAN_POINT('',(96.,41.,-7.5));
#215 = DIRECTION('',(0.,0.,-1.));
#216 = DIRECTION('',(1.,0.,0.));
#217 = PLANE('',#218);
#218 = AXIS2_PLACEMENT_3D('',#219,#220,#221);
#219 = CARTESIAN_POINT('',(0.,0.,-7.5));
#220 = DIRECTION('',(0.,0.,1.));
#221 = DIRECTION('',(1.,0.,0.));
#222 = ADVANCED_FACE('',(#223),#241,.T.);
#223 = FACE_BOUND('',#224,.T.);
#224 = EDGE_LOOP('',(#225,#226,#227,#235));
#225 = ORIENTED_EDGE('',*,*,#127,.F.);
#226 = ORIENTED_EDGE('',*,*,#31,.T.);
#227 = ORIENTED_EDGE('',*,*,#228,.T.);
#228 = EDGE_CURVE('',#32,#229,#231,.T.);
#229 = VERTEX_POINT('',#230);
#230 = CARTESIAN_POINT('',(105.,48.,10.5));
#231 = LINE('',#232,#233);
#232 = CARTESIAN_POINT('',(103.29289321881,49.707106781187,10.5));
#233 = VECTOR('',#234,1.);
#234 = DIRECTION('',(0.707106781187,-0.707106781187,1.97E-15));
#235 = ORIENTED_EDGE('',*,*,#236,.F.);
#236 = EDGE_CURVE('',#120,#229,#237,.T.);
#237 = LINE('',#238,#239);
#238 = CARTESIAN_POINT('',(105.,48.,-7.5));
#239 = VECTOR('',#240,1.);
#240 = DIRECTION('',(0.,0.,1.));
#241 = PLANE('',#242);
#242 = AXIS2_PLACEMENT_3D('',#243,#244,#245);
#243 = CARTESIAN_POINT('',(104.,49.,-7.5));
#244 = DIRECTION('',(0.707106781187,0.707106781187,0.));
#245 = DIRECTION('',(0.,0.,1.));
#246 = ADVANCED_FACE('',(#247),#265,.T.);
#247 = FACE_BOUND('',#248,.F.);
#248 = EDGE_LOOP('',(#249,#250,#251,#259));
#249 = ORIENTED_EDGE('',*,*,#134,.F.);
#250 = ORIENTED_EDGE('',*,*,#71,.T.);
#251 = ORIENTED_EDGE('',*,*,#252,.T.);
#252 = EDGE_CURVE('',#64,#253,#255,.T.);
#253 = VERTEX_POINT('',#254);
#254 = CARTESIAN_POINT('',(-105.,48.,30.5));
#255 = LINE('',#256,#257);
#256 = CARTESIAN_POINT('',(-103.5,49.5,30.5));
#257 = VECTOR('',#258,1.);
#258 = DIRECTION('',(-0.707106781187,-0.707106781187,5.E-15));
#259 = ORIENTED_EDGE('',*,*,#260,.F.);
#260 = EDGE_CURVE('',#86,#253,#261,.T.);
#261 = LINE('',#262,#263);
#262 = CARTESIAN_POINT('',(-105.,48.,-7.5));
#263 = VECTOR('',#264,1.);
#264 = DIRECTION('',(0.,0.,1.));
#265 = PLANE('',#266);
#266 = AXIS2_PLACEMENT_3D('',#267,#268,#269);
#267 = CARTESIAN_POINT('',(-104.,49.,-7.5));
#268 = DIRECTION('',(-0.707106781187,0.707106781187,0.));
#269 = DIRECTION('',(-0.,-0.,-1.));
#270 = ADVANCED_FACE('',(#271),#289,.F.);
#271 = FACE_BOUND('',#272,.F.);
#272 = EDGE_LOOP('',(#273,#281,#282,#283));
#273 = ORIENTED_EDGE('',*,*,#274,.F.);
#274 = EDGE_CURVE('',#40,#275,#277,.T.);
#275 = VERTEX_POINT('',#276);
#276 = CARTESIAN_POINT('',(103.58578643762,48.,13.914213562373));
#277 = LINE('',#278,#279);
#278 = CARTESIAN_POINT('',(102.52512626584,49.5,12.853553390593));
#279 = VECTOR('',#280,1.);
#280 = DIRECTION('',(0.5,-0.707106781187,0.5));
#281 = ORIENTED_EDGE('',*,*,#39,.T.);
#282 = ORIENTED_EDGE('',*,*,#228,.T.);
#283 = ORIENTED_EDGE('',*,*,#284,.F.);
#284 = EDGE_CURVE('',#275,#229,#285,.T.);
#285 = LINE('',#286,#287);
#286 = CARTESIAN_POINT('',(104.08578643762,48.,12.707106781186));
#287 = VECTOR('',#288,1.);
#288 = DIRECTION('',(0.382683432365,-3.44E-15,-0.923879532511));
#289 = PLANE('',#290);
#290 = AXIS2_PLACEMENT_3D('',#291,#292,#293);
#291 = CARTESIAN_POINT('',(102.17157287525,50.,12.5));
#292 = DIRECTION('',(-0.678598344546,-0.678598344546,-0.281084637715));
#293 = DIRECTION('',(0.382683432365,-3.802513859341E-15,-0.923879532511)
  );
#294 = ADVANCED_FACE('',(#295),#320,.F.);
#295 = FACE_BOUND('',#296,.T.);
#296 = EDGE_LOOP('',(#297,#305,#306,#314));
#297 = ORIENTED_EDGE('',*,*,#298,.F.);
#298 = EDGE_CURVE('',#56,#299,#301,.T.);
#299 = VERTEX_POINT('',#300);
#300 = CARTESIAN_POINT('',(83.,48.,32.5));
#301 = LINE('',#302,#303);
#302 = CARTESIAN_POINT('',(83.,49.5,31.));
#303 = VECTOR('',#304,1.);
#304 = DIRECTION('',(0.,-0.707106781187,0.707106781187));
#305 = ORIENTED_EDGE('',*,*,#63,.T.);
#306 = ORIENTED_EDGE('',*,*,#307,.T.);
#307 = EDGE_CURVE('',#64,#308,#310,.T.);
#308 = VERTEX_POINT('',#309);
#309 = CARTESIAN_POINT('',(-103.,48.,32.5));
#310 = LINE('',#311,#312);
#311 = CARTESIAN_POINT('',(-103.,49.5,31.));
#312 = VECTOR('',#313,1.);
#313 = DIRECTION('',(0.,-0.707106781187,0.707106781187));
#314 = ORIENTED_EDGE('',*,*,#315,.F.);
#315 = EDGE_CURVE('',#299,#308,#316,.T.);
#316 = LINE('',#317,#318);
#317 = CARTESIAN_POINT('',(85.,48.,32.5));
#318 = VECTOR('',#319,1.);
#319 = DIRECTION('',(-1.,0.,0.));
#320 = PLANE('',#321);
#321 = AXIS2_PLACEMENT_3D('',#322,#323,#324);
#322 = CARTESIAN_POINT('',(85.,49.,31.5));
#323 = DIRECTION('',(0.,-0.707106781187,-0.707106781187));
#324 = DIRECTION('',(1.,0.,0.));
#325 = ADVANCED_FACE('',(#326),#344,.T.);
#326 = FACE_BOUND('',#327,.F.);
#327 = EDGE_LOOP('',(#328,#336,#337,#338));
#328 = ORIENTED_EDGE('',*,*,#329,.F.);
#329 = EDGE_CURVE('',#48,#330,#332,.T.);
#330 = VERTEX_POINT('',#331);
#331 = CARTESIAN_POINT('',(86.414213562373,48.,31.085786437627));
#332 = LINE('',#333,#334);
#333 = CARTESIAN_POINT('',(85.207106781187,49.707106781187,
    29.87867965644));
#334 = VECTOR('',#335,1.);
#335 = DIRECTION('',(0.5,-0.707106781187,0.5));
#336 = ORIENTED_EDGE('',*,*,#47,.T.);
#337 = ORIENTED_EDGE('',*,*,#274,.T.);
#338 = ORIENTED_EDGE('',*,*,#339,.F.);
#339 = EDGE_CURVE('',#330,#275,#340,.T.);
#340 = LINE('',#341,#342);
#341 = CARTESIAN_POINT('',(85.,48.,32.5));
#342 = VECTOR('',#343,1.);
#343 = DIRECTION('',(0.707106781187,0.,-0.707106781187));
#344 = PLANE('',#345);
#345 = AXIS2_PLACEMENT_3D('',#346,#347,#348);
#346 = CARTESIAN_POINT('',(84.292893218813,49.,31.792893218813));
#347 = DIRECTION('',(0.5,0.707106781187,0.5));
#348 = DIRECTION('',(-0.707106781187,2.775557561563E-17,0.707106781187)
  );
#349 = ADVANCED_FACE('',(#350),#361,.F.);
#350 = FACE_BOUND('',#351,.F.);
#351 = EDGE_LOOP('',(#352,#353,#354,#355));
#352 = ORIENTED_EDGE('',*,*,#298,.F.);
#353 = ORIENTED_EDGE('',*,*,#55,.T.);
#354 = ORIENTED_EDGE('',*,*,#329,.T.);
#355 = ORIENTED_EDGE('',*,*,#356,.F.);
#356 = EDGE_CURVE('',#299,#330,#357,.T.);
#357 = LINE('',#358,#359);
#358 = CARTESIAN_POINT('',(84.207106781186,48.,32.));
#359 = VECTOR('',#360,1.);
#360 = DIRECTION('',(0.923879532511,3.76E-15,-0.382683432365));
#361 = PLANE('',#362);
#362 = AXIS2_PLACEMENT_3D('',#363,#364,#365);
#363 = CARTESIAN_POINT('',(83.,50.,30.5));
#364 = DIRECTION('',(-0.281084637715,-0.678598344546,-0.678598344546));
#365 = DIRECTION('',(0.923879532511,3.858025010572E-15,-0.382683432365)
  );
#366 = ADVANCED_FACE('',(#367),#385,.F.);
#367 = FACE_BOUND('',#368,.F.);
#368 = EDGE_LOOP('',(#369,#370,#371,#379));
#369 = ORIENTED_EDGE('',*,*,#85,.F.);
#370 = ORIENTED_EDGE('',*,*,#260,.T.);
#371 = ORIENTED_EDGE('',*,*,#372,.T.);
#372 = EDGE_CURVE('',#253,#373,#375,.T.);
#373 = VERTEX_POINT('',#374);
#374 = CARTESIAN_POINT('',(-105.,-48.,30.5));
#375 = LINE('',#376,#377);
#376 = CARTESIAN_POINT('',(-105.,50.,30.5));
#377 = VECTOR('',#378,1.);
#378 = DIRECTION('',(0.,-1.,0.));
#379 = ORIENTED_EDGE('',*,*,#380,.F.);
#380 = EDGE_CURVE('',#88,#373,#381,.T.);
#381 = LINE('',#382,#383);
#382 = CARTESIAN_POINT('',(-105.,-48.,-7.5));
#383 = VECTOR('',#384,1.);
#384 = DIRECTION('',(0.,0.,1.));
#385 = PLANE('',#386);
#386 = AXIS2_PLACEMENT_3D('',#387,#388,#389);
#387 = CARTESIAN_POINT('',(-105.,50.,-7.5));
#388 = DIRECTION('',(1.,0.,0.));
#389 = DIRECTION('',(0.,-1.,0.));
#390 = ADVANCED_FACE('',(#391),#409,.T.);
#391 = FACE_BOUND('',#392,.F.);
#392 = EDGE_LOOP('',(#393,#394,#395,#403));
#393 = ORIENTED_EDGE('',*,*,#95,.F.);
#394 = ORIENTED_EDGE('',*,*,#380,.T.);
#395 = ORIENTED_EDGE('',*,*,#396,.T.);
#396 = EDGE_CURVE('',#373,#397,#399,.T.);
#397 = VERTEX_POINT('',#398);
#398 = CARTESIAN_POINT('',(-103.,-50.,30.5));
#399 = LINE('',#400,#401);
#400 = CARTESIAN_POINT('',(-104.5,-48.5,30.5));
#401 = VECTOR('',#402,1.);
#402 = DIRECTION('',(0.707106781187,-0.707106781187,-2.6E-15));
#403 = ORIENTED_EDGE('',*,*,#404,.F.);
#404 = EDGE_CURVE('',#96,#397,#405,.T.);
#405 = LINE('',#406,#407);
#406 = CARTESIAN_POINT('',(-103.,-50.,-7.5));
#407 = VECTOR('',#408,1.);
#408 = DIRECTION('',(0.,0.,1.));
#409 = PLANE('',#410);
#410 = AXIS2_PLACEMENT_3D('',#411,#412,#413);
#411 = CARTESIAN_POINT('',(-104.,-49.,-7.5));
#412 = DIRECTION('',(-0.707106781187,-0.707106781187,0.));
#413 = DIRECTION('',(-0.,-0.,-1.));
#414 = ADVANCED_FACE('',(#415),#457,.F.);
#415 = FACE_BOUND('',#416,.F.);
#416 = EDGE_LOOP('',(#417,#418,#419,#427,#435,#443,#451));
#417 = ORIENTED_EDGE('',*,*,#103,.F.);
#418 = ORIENTED_EDGE('',*,*,#404,.T.);
#419 = ORIENTED_EDGE('',*,*,#420,.T.);
#420 = EDGE_CURVE('',#397,#421,#423,.T.);
#421 = VERTEX_POINT('',#422);
#422 = CARTESIAN_POINT('',(83.,-50.,30.5));
#423 = LINE('',#424,#425);
#424 = CARTESIAN_POINT('',(-105.,-50.,30.5));
#425 = VECTOR('',#426,1.);
#426 = DIRECTION('',(1.,0.,0.));
#427 = ORIENTED_EDGE('',*,*,#428,.T.);
#428 = EDGE_CURVE('',#421,#429,#431,.T.);
#429 = VERTEX_POINT('',#430);
#430 = CARTESIAN_POINT('',(85.,-50.,29.671572875254));
#431 = LINE('',#432,#433);
#432 = CARTESIAN_POINT('',(9.483495705504,-50.,60.95153313704));
#433 = VECTOR('',#434,1.);
#434 = DIRECTION('',(0.923879532511,0.,-0.382683432365));
#435 = ORIENTED_EDGE('',*,*,#436,.T.);
#436 = EDGE_CURVE('',#429,#437,#439,.T.);
#437 = VERTEX_POINT('',#438);
#438 = CARTESIAN_POINT('',(102.17157287525,-50.,12.5));
#439 = LINE('',#440,#441);
#440 = CARTESIAN_POINT('',(83.585786437627,-50.,31.085786437627));
#441 = VECTOR('',#442,1.);
#442 = DIRECTION('',(0.707106781187,0.,-0.707106781187));
#443 = ORIENTED_EDGE('',*,*,#444,.F.);
#444 = EDGE_CURVE('',#445,#437,#447,.T.);
#445 = VERTEX_POINT('',#446);
#446 = CARTESIAN_POINT('',(103.,-50.,10.5));
#447 = LINE('',#448,#449);
#448 = CARTESIAN_POINT('',(90.95153313704,-50.,39.587572106361));
#449 = VECTOR('',#450,1.);
#450 = DIRECTION('',(-0.382683432365,0.,0.923879532511));
#451 = ORIENTED_EDGE('',*,*,#452,.F.);
#452 = EDGE_CURVE('',#104,#445,#453,.T.);
#453 = LINE('',#454,#455);
#454 = CARTESIAN_POINT('',(103.,-50.,-7.5));
#455 = VECTOR('',#456,1.);
#456 = DIRECTION('',(0.,0.,1.));
#457 = PLANE('',#458);
#458 = AXIS2_PLACEMENT_3D('',#459,#460,#461);
#459 = CARTESIAN_POINT('',(-105.,-50.,-7.5));
#460 = DIRECTION('',(0.,1.,0.));
#461 = DIRECTION('',(1.,0.,0.));
#462 = ADVANCED_FACE('',(#463),#481,.T.);
#463 = FACE_BOUND('',#464,.T.);
#464 = EDGE_LOOP('',(#465,#466,#474,#480));
#465 = ORIENTED_EDGE('',*,*,#111,.F.);
#466 = ORIENTED_EDGE('',*,*,#467,.T.);
#467 = EDGE_CURVE('',#112,#468,#470,.T.);
#468 = VERTEX_POINT('',#469);
#469 = CARTESIAN_POINT('',(105.,-48.,10.5));
#470 = LINE('',#471,#472);
#471 = CARTESIAN_POINT('',(105.,-48.,-7.5));
#472 = VECTOR('',#473,1.);
#473 = DIRECTION('',(0.,0.,1.));
#474 = ORIENTED_EDGE('',*,*,#475,.F.);
#475 = EDGE_CURVE('',#445,#468,#476,.T.);
#476 = LINE('',#477,#478);
#477 = CARTESIAN_POINT('',(103.5,-49.5,10.5));
#478 = VECTOR('',#479,1.);
#479 = DIRECTION('',(0.707106781187,0.707106781187,5.92E-15));
#480 = ORIENTED_EDGE('',*,*,#452,.F.);
#481 = PLANE('',#482);
#482 = AXIS2_PLACEMENT_3D('',#483,#484,#485);
#483 = CARTESIAN_POINT('',(104.,-49.,-7.5));
#484 = DIRECTION('',(0.707106781187,-0.707106781187,0.));
#485 = DIRECTION('',(0.,0.,1.));
#486 = ADVANCED_FACE('',(#487),#498,.F.);
#487 = FACE_BOUND('',#488,.F.);
#488 = EDGE_LOOP('',(#489,#490,#491,#497));
#489 = ORIENTED_EDGE('',*,*,#119,.F.);
#490 = ORIENTED_EDGE('',*,*,#467,.T.);
#491 = ORIENTED_EDGE('',*,*,#492,.T.);
#492 = EDGE_CURVE('',#468,#229,#493,.T.);
#493 = LINE('',#494,#495);
#494 = CARTESIAN_POINT('',(105.,-50.,10.5));
#495 = VECTOR('',#496,1.);
#496 = DIRECTION('',(0.,1.,0.));
#497 = ORIENTED_EDGE('',*,*,#236,.F.);
#498 = PLANE('',#499);
#499 = AXIS2_PLACEMENT_3D('',#500,#501,#502);
#500 = CARTESIAN_POINT('',(105.,-50.,-7.5));
#501 = DIRECTION('',(-1.,0.,0.));
#502 = DIRECTION('',(0.,1.,0.));
#503 = ADVANCED_FACE('',(#504),#523,.F.);
#504 = FACE_BOUND('',#505,.F.);
#505 = EDGE_LOOP('',(#506,#514,#521,#522));
#506 = ORIENTED_EDGE('',*,*,#507,.T.);
#507 = EDGE_CURVE('',#143,#508,#510,.T.);
#508 = VERTEX_POINT('',#509);
#509 = CARTESIAN_POINT('',(-91.9,-41.,-6.1));
#510 = LINE('',#511,#512);
#511 = CARTESIAN_POINT('',(-91.9,-41.,-7.5));
#512 = VECTOR('',#513,1.);
#513 = DIRECTION('',(0.,0.,1.));
#514 = ORIENTED_EDGE('',*,*,#515,.T.);
#515 = EDGE_CURVE('',#508,#508,#516,.T.);
#516 = CIRCLE('',#517,4.1);
#517 = AXIS2_PLACEMENT_3D('',#518,#519,#520);
#518 = CARTESIAN_POINT('',(-96.,-41.,-6.1));
#519 = DIRECTION('',(0.,0.,-1.));
#520 = DIRECTION('',(1.,0.,0.));
#521 = ORIENTED_EDGE('',*,*,#507,.F.);
#522 = ORIENTED_EDGE('',*,*,#142,.F.);
#523 = CYLINDRICAL_SURFACE('',#524,4.1);
#524 = AXIS2_PLACEMENT_3D('',#525,#526,#527);
#525 = CARTESIAN_POINT('',(-96.,-41.,-7.5));
#526 = DIRECTION('',(0.,0.,-1.));
#527 = DIRECTION('',(1.,0.,0.));
#528 = ADVANCED_FACE('',(#529),#548,.F.);
#529 = FACE_BOUND('',#530,.F.);
#530 = EDGE_LOOP('',(#531,#539,#546,#547));
#531 = ORIENTED_EDGE('',*,*,#532,.T.);
#532 = EDGE_CURVE('',#154,#533,#535,.T.);
#533 = VERTEX_POINT('',#534);
#534 = CARTESIAN_POINT('',(100.10000000006,-41.00000000006,-6.1));
#535 = LINE('',#536,#537);
#536 = CARTESIAN_POINT('',(100.10000000006,-41.00000000006,-7.5));
#537 = VECTOR('',#538,1.);
#538 = DIRECTION('',(0.,0.,1.));
#539 = ORIENTED_EDGE('',*,*,#540,.T.);
#540 = EDGE_CURVE('',#533,#533,#541,.T.);
#541 = CIRCLE('',#542,4.1);
#542 = AXIS2_PLACEMENT_3D('',#543,#544,#545);
#543 = CARTESIAN_POINT('',(96.000000000063,-41.00000000006,-6.1));
#544 = DIRECTION('',(0.,0.,-1.));
#545 = DIRECTION('',(1.,0.,0.));
#546 = ORIENTED_EDGE('',*,*,#532,.F.);
#547 = ORIENTED_EDGE('',*,*,#153,.F.);
#548 = CYLINDRICAL_SURFACE('',#549,4.1);
#549 = AXIS2_PLACEMENT_3D('',#550,#551,#552);
#550 = CARTESIAN_POINT('',(96.000000000063,-41.00000000006,-7.5));
#551 = DIRECTION('',(0.,0.,-1.));
#552 = DIRECTION('',(1.,0.,0.));
#553 = ADVANCED_FACE('',(#554),#579,.F.);
#554 = FACE_BOUND('',#555,.F.);
#555 = EDGE_LOOP('',(#556,#564,#572,#578));
#556 = ORIENTED_EDGE('',*,*,#557,.T.);
#557 = EDGE_CURVE('',#165,#558,#560,.T.);
#558 = VERTEX_POINT('',#559);
#559 = CARTESIAN_POINT('',(-90.,-42.,-2.5));
#560 = LINE('',#561,#562);
#561 = CARTESIAN_POINT('',(-90.,-42.,-7.5));
#562 = VECTOR('',#563,1.);
#563 = DIRECTION('',(0.,0.,1.));
#564 = ORIENTED_EDGE('',*,*,#565,.T.);
#565 = EDGE_CURVE('',#558,#566,#568,.T.);
#566 = VERTEX_POINT('',#567);
#567 = CARTESIAN_POINT('',(-90.,42.,-2.5));
#568 = LINE('',#569,#570);
#569 = CARTESIAN_POINT('',(-90.,-42.,-2.5));
#570 = VECTOR('',#571,1.);
#571 = DIRECTION('',(0.,1.,0.));
#572 = ORIENTED_EDGE('',*,*,#573,.F.);
#573 = EDGE_CURVE('',#167,#566,#574,.T.);
#574 = LINE('',#575,#576);
#575 = CARTESIAN_POINT('',(-90.,42.,-7.5));
#576 = VECTOR('',#577,1.);
#577 = DIRECTION('',(0.,0.,1.));
#578 = ORIENTED_EDGE('',*,*,#164,.F.);
#579 = PLANE('',#580);
#580 = AXIS2_PLACEMENT_3D('',#581,#582,#583);
#581 = CARTESIAN_POINT('',(-90.,-42.,-7.5));
#582 = DIRECTION('',(-1.,0.,0.));
#583 = DIRECTION('',(0.,1.,0.));
#584 = ADVANCED_FACE('',(#585),#619,.T.);
#585 = FACE_BOUND('',#586,.T.);
#586 = EDGE_LOOP('',(#587,#588,#596,#604,#612,#618));
#587 = ORIENTED_EDGE('',*,*,#557,.T.);
#588 = ORIENTED_EDGE('',*,*,#589,.F.);
#589 = EDGE_CURVE('',#590,#558,#592,.T.);
#590 = VERTEX_POINT('',#591);
#591 = CARTESIAN_POINT('',(-21.,-42.,-2.5));
#592 = LINE('',#593,#594);
#593 = CARTESIAN_POINT('',(-21.,-42.,-2.5));
#594 = VECTOR('',#595,1.);
#595 = DIRECTION('',(-1.,0.,0.));
#596 = ORIENTED_EDGE('',*,*,#597,.F.);
#597 = EDGE_CURVE('',#598,#590,#600,.T.);
#598 = VERTEX_POINT('',#599);
#599 = CARTESIAN_POINT('',(-21.,-42.,32.5));
#600 = LINE('',#601,#602);
#601 = CARTESIAN_POINT('',(-21.,-42.,32.5));
#602 = VECTOR('',#603,1.);
#603 = DIRECTION('',(-0.,-0.,-1.));
#604 = ORIENTED_EDGE('',*,*,#605,.T.);
#605 = EDGE_CURVE('',#598,#606,#608,.T.);
#606 = VERTEX_POINT('',#607);
#607 = CARTESIAN_POINT('',(77.,-42.,32.5));
#608 = LINE('',#609,#610);
#609 = CARTESIAN_POINT('',(-21.,-42.,32.5));
#610 = VECTOR('',#611,1.);
#611 = DIRECTION('',(1.,0.,0.));
#612 = ORIENTED_EDGE('',*,*,#613,.T.);
#613 = EDGE_CURVE('',#606,#183,#614,.T.);
#614 = LINE('',#615,#616);
#615 = CARTESIAN_POINT('',(77.,-42.,32.5));
#616 = VECTOR('',#617,1.);
#617 = DIRECTION('',(-0.,-0.,-1.));
#618 = ORIENTED_EDGE('',*,*,#190,.T.);
#619 = PLANE('',#620);
#620 = AXIS2_PLACEMENT_3D('',#621,#622,#623);
#621 = CARTESIAN_POINT('',(-0.666666666667,-42.,6.666666666667));
#622 = DIRECTION('',(0.,1.,0.));
#623 = DIRECTION('',(0.,0.,1.));
#624 = ADVANCED_FACE('',(#625),#659,.T.);
#625 = FACE_BOUND('',#626,.T.);
#626 = EDGE_LOOP('',(#627,#628,#629,#637,#645,#653));
#627 = ORIENTED_EDGE('',*,*,#573,.F.);
#628 = ORIENTED_EDGE('',*,*,#174,.F.);
#629 = ORIENTED_EDGE('',*,*,#630,.F.);
#630 = EDGE_CURVE('',#631,#175,#633,.T.);
#631 = VERTEX_POINT('',#632);
#632 = CARTESIAN_POINT('',(77.,42.,32.5));
#633 = LINE('',#634,#635);
#634 = CARTESIAN_POINT('',(77.,42.,32.5));
#635 = VECTOR('',#636,1.);
#636 = DIRECTION('',(-0.,-0.,-1.));
#637 = ORIENTED_EDGE('',*,*,#638,.T.);
#638 = EDGE_CURVE('',#631,#639,#641,.T.);
#639 = VERTEX_POINT('',#640);
#640 = CARTESIAN_POINT('',(-21.,42.,32.5));
#641 = LINE('',#642,#643);
#642 = CARTESIAN_POINT('',(77.,42.,32.5));
#643 = VECTOR('',#644,1.);
#644 = DIRECTION('',(-1.,0.,0.));
#645 = ORIENTED_EDGE('',*,*,#646,.T.);
#646 = EDGE_CURVE('',#639,#647,#649,.T.);
#647 = VERTEX_POINT('',#648);
#648 = CARTESIAN_POINT('',(-21.,42.,-2.5));
#649 = LINE('',#650,#651);
#650 = CARTESIAN_POINT('',(-21.,42.,32.5));
#651 = VECTOR('',#652,1.);
#652 = DIRECTION('',(-0.,-0.,-1.));
#653 = ORIENTED_EDGE('',*,*,#654,.F.);
#654 = EDGE_CURVE('',#566,#647,#655,.T.);
#655 = LINE('',#656,#657);
#656 = CARTESIAN_POINT('',(-90.,42.,-2.5));
#657 = VECTOR('',#658,1.);
#658 = DIRECTION('',(1.,0.,0.));
#659 = PLANE('',#660);
#660 = AXIS2_PLACEMENT_3D('',#661,#662,#663);
#661 = CARTESIAN_POINT('',(-0.666666666667,42.,6.666666666667));
#662 = DIRECTION('',(-0.,-1.,-0.));
#663 = DIRECTION('',(0.,0.,-1.));
#664 = ADVANCED_FACE('',(#665),#676,.F.);
#665 = FACE_BOUND('',#666,.F.);
#666 = EDGE_LOOP('',(#667,#673,#674,#675));
#667 = ORIENTED_EDGE('',*,*,#668,.F.);
#668 = EDGE_CURVE('',#606,#631,#669,.T.);
#669 = LINE('',#670,#671);
#670 = CARTESIAN_POINT('',(77.,-42.,32.5));
#671 = VECTOR('',#672,1.);
#672 = DIRECTION('',(0.,1.,0.));
#673 = ORIENTED_EDGE('',*,*,#613,.T.);
#674 = ORIENTED_EDGE('',*,*,#182,.T.);
#675 = ORIENTED_EDGE('',*,*,#630,.F.);
#676 = PLANE('',#677);
#677 = AXIS2_PLACEMENT_3D('',#678,#679,#680);
#678 = CARTESIAN_POINT('',(77.,-42.,32.5));
#679 = DIRECTION('',(1.,0.,0.));
#680 = DIRECTION('',(0.,1.,0.));
#681 = ADVANCED_FACE('',(#682),#701,.F.);
#682 = FACE_BOUND('',#683,.F.);
#683 = EDGE_LOOP('',(#684,#692,#699,#700));
#684 = ORIENTED_EDGE('',*,*,#685,.T.);
#685 = EDGE_CURVE('',#199,#686,#688,.T.);
#686 = VERTEX_POINT('',#687);
#687 = CARTESIAN_POINT('',(-91.9,41.,-6.1));
#688 = LINE('',#689,#690);
#689 = CARTESIAN_POINT('',(-91.9,41.,-7.5));
#690 = VECTOR('',#691,1.);
#691 = DIRECTION('',(0.,0.,1.));
#692 = ORIENTED_EDGE('',*,*,#693,.T.);
#693 = EDGE_CURVE('',#686,#686,#694,.T.);
#694 = CIRCLE('',#695,4.1);
#695 = AXIS2_PLACEMENT_3D('',#696,#697,#698);
#696 = CARTESIAN_POINT('',(-96.,41.,-6.1));
#697 = DIRECTION('',(0.,0.,-1.));
#698 = DIRECTION('',(1.,0.,0.));
#699 = ORIENTED_EDGE('',*,*,#685,.F.);
#700 = ORIENTED_EDGE('',*,*,#198,.F.);
#701 = CYLINDRICAL_SURFACE('',#702,4.1);
#702 = AXIS2_PLACEMENT_3D('',#703,#704,#705);
#703 = CARTESIAN_POINT('',(-96.,41.,-7.5));
#704 = DIRECTION('',(0.,0.,-1.));
#705 = DIRECTION('',(1.,0.,0.));
#706 = ADVANCED_FACE('',(#707),#726,.F.);
#707 = FACE_BOUND('',#708,.F.);
#708 = EDGE_LOOP('',(#709,#717,#724,#725));
#709 = ORIENTED_EDGE('',*,*,#710,.T.);
#710 = EDGE_CURVE('',#210,#711,#713,.T.);
#711 = VERTEX_POINT('',#712);
#712 = CARTESIAN_POINT('',(100.1,41.,-6.1));
#713 = LINE('',#714,#715);
#714 = CARTESIAN_POINT('',(100.1,41.,-7.5));
#715 = VECTOR('',#716,1.);
#716 = DIRECTION('',(0.,0.,1.));
#717 = ORIENTED_EDGE('',*,*,#718,.T.);
#718 = EDGE_CURVE('',#711,#711,#719,.T.);
#719 = CIRCLE('',#720,4.1);
#720 = AXIS2_PLACEMENT_3D('',#721,#722,#723);
#721 = CARTESIAN_POINT('',(96.,41.,-6.1));
#722 = DIRECTION('',(0.,0.,-1.));
#723 = DIRECTION('',(1.,0.,0.));
#724 = ORIENTED_EDGE('',*,*,#710,.F.);
#725 = ORIENTED_EDGE('',*,*,#209,.F.);
#726 = CYLINDRICAL_SURFACE('',#727,4.1);
#727 = AXIS2_PLACEMENT_3D('',#728,#729,#730);
#728 = CARTESIAN_POINT('',(96.,41.,-7.5));
#729 = DIRECTION('',(0.,0.,-1.));
#730 = DIRECTION('',(1.,0.,0.));
#731 = ADVANCED_FACE('',(#732),#742,.T.);
#732 = FACE_BOUND('',#733,.T.);
#733 = EDGE_LOOP('',(#734,#735,#736));
#734 = ORIENTED_EDGE('',*,*,#307,.F.);
#735 = ORIENTED_EDGE('',*,*,#252,.T.);
#736 = ORIENTED_EDGE('',*,*,#737,.F.);
#737 = EDGE_CURVE('',#308,#253,#738,.T.);
#738 = LINE('',#739,#740);
#739 = CARTESIAN_POINT('',(-104.,48.,31.5));
#740 = VECTOR('',#741,1.);
#741 = DIRECTION('',(-0.707106781187,5.E-15,-0.707106781187));
#742 = PLANE('',#743);
#743 = AXIS2_PLACEMENT_3D('',#744,#745,#746);
#744 = CARTESIAN_POINT('',(-103.,50.,30.5));
#745 = DIRECTION('',(-0.57735026919,0.57735026919,0.57735026919));
#746 = DIRECTION('',(-0.707106781187,2.581268532253E-15,-0.707106781187)
  );
#747 = ADVANCED_FACE('',(#748),#766,.T.);
#748 = FACE_BOUND('',#749,.T.);
#749 = EDGE_LOOP('',(#750,#751,#752,#760));
#750 = ORIENTED_EDGE('',*,*,#492,.T.);
#751 = ORIENTED_EDGE('',*,*,#284,.F.);
#752 = ORIENTED_EDGE('',*,*,#753,.F.);
#753 = EDGE_CURVE('',#754,#275,#756,.T.);
#754 = VERTEX_POINT('',#755);
#755 = CARTESIAN_POINT('',(103.58578643762,-48.,13.914213562373));
#756 = LINE('',#757,#758);
#757 = CARTESIAN_POINT('',(103.58578643762,-50.,13.914213562373));
#758 = VECTOR('',#759,1.);
#759 = DIRECTION('',(0.,1.,0.));
#760 = ORIENTED_EDGE('',*,*,#761,.F.);
#761 = EDGE_CURVE('',#468,#754,#762,.T.);
#762 = LINE('',#763,#764);
#763 = CARTESIAN_POINT('',(104.5,-48.,11.707106781187));
#764 = VECTOR('',#765,1.);
#765 = DIRECTION('',(-0.382683432365,1.96E-15,0.923879532511));
#766 = PLANE('',#767);
#767 = AXIS2_PLACEMENT_3D('',#768,#769,#770);
#768 = CARTESIAN_POINT('',(104.29289321881,-50.,12.207106781187));
#769 = DIRECTION('',(0.923879532511,0.,0.382683432365));
#770 = DIRECTION('',(0.,1.,0.));
#771 = ADVANCED_FACE('',(#772,#797,#808,#842,#853),#864,.T.);
#772 = FACE_BOUND('',#773,.T.);
#773 = EDGE_LOOP('',(#774,#782,#783,#791));
#774 = ORIENTED_EDGE('',*,*,#775,.T.);
#775 = EDGE_CURVE('',#776,#299,#778,.T.);
#776 = VERTEX_POINT('',#777);
#777 = CARTESIAN_POINT('',(83.,-48.,32.5));
#778 = LINE('',#779,#780);
#779 = CARTESIAN_POINT('',(83.,-50.,32.5));
#780 = VECTOR('',#781,1.);
#781 = DIRECTION('',(0.,1.,0.));
#782 = ORIENTED_EDGE('',*,*,#315,.T.);
#783 = ORIENTED_EDGE('',*,*,#784,.T.);
#784 = EDGE_CURVE('',#308,#785,#787,.T.);
#785 = VERTEX_POINT('',#786);
#786 = CARTESIAN_POINT('',(-103.,-48.,32.5));
#787 = LINE('',#788,#789);
#788 = CARTESIAN_POINT('',(-103.,50.,32.5));
#789 = VECTOR('',#790,1.);
#790 = DIRECTION('',(0.,-1.,0.));
#791 = ORIENTED_EDGE('',*,*,#792,.T.);
#792 = EDGE_CURVE('',#785,#776,#793,.T.);
#793 = LINE('',#794,#795);
#794 = CARTESIAN_POINT('',(-105.,-48.,32.5));
#795 = VECTOR('',#796,1.);
#796 = DIRECTION('',(1.,0.,0.));
#797 = FACE_BOUND('',#798,.T.);
#798 = EDGE_LOOP('',(#799));
#799 = ORIENTED_EDGE('',*,*,#800,.F.);
#800 = EDGE_CURVE('',#801,#801,#803,.T.);
#801 = VERTEX_POINT('',#802);
#802 = CARTESIAN_POINT('',(-21.3,-45.,32.5));
#803 = CIRCLE('',#804,2.7);
#804 = AXIS2_PLACEMENT_3D('',#805,#806,#807);
#805 = CARTESIAN_POINT('',(-24.,-45.,32.5));
#806 = DIRECTION('',(0.,0.,1.));
#807 = DIRECTION('',(1.,0.,0.));
#808 = FACE_BOUND('',#809,.T.);
#809 = EDGE_LOOP('',(#810,#820,#828,#836));
#810 = ORIENTED_EDGE('',*,*,#811,.F.);
#811 = EDGE_CURVE('',#812,#814,#816,.T.);
#812 = VERTEX_POINT('',#813);
#813 = CARTESIAN_POINT('',(-97.,42.,32.5));
#814 = VERTEX_POINT('',#815);
#815 = CARTESIAN_POINT('',(-97.,-42.,32.5));
#816 = LINE('',#817,#818);
#817 = CARTESIAN_POINT('',(-97.,42.,32.5));
#818 = VECTOR('',#819,1.);
#819 = DIRECTION('',(0.,-1.,0.));
#820 = ORIENTED_EDGE('',*,*,#821,.F.);
#821 = EDGE_CURVE('',#822,#812,#824,.T.);
#822 = VERTEX_POINT('',#823);
#823 = CARTESIAN_POINT('',(-29.,42.,32.5));
#824 = LINE('',#825,#826);
#825 = CARTESIAN_POINT('',(-29.,42.,32.5));
#826 = VECTOR('',#827,1.);
#827 = DIRECTION('',(-1.,0.,0.));
#828 = ORIENTED_EDGE('',*,*,#829,.F.);
#829 = EDGE_CURVE('',#830,#822,#832,.T.);
#830 = VERTEX_POINT('',#831);
#831 = CARTESIAN_POINT('',(-29.,-42.,32.5));
#832 = LINE('',#833,#834);
#833 = CARTESIAN_POINT('',(-29.,-42.,32.5));
#834 = VECTOR('',#835,1.);
#835 = DIRECTION('',(0.,1.,0.));
#836 = ORIENTED_EDGE('',*,*,#837,.F.);
#837 = EDGE_CURVE('',#814,#830,#838,.T.);
#838 = LINE('',#839,#840);
#839 = CARTESIAN_POINT('',(-97.,-42.,32.5));
#840 = VECTOR('',#841,1.);
#841 = DIRECTION('',(1.,0.,0.));
#842 = FACE_BOUND('',#843,.T.);
#843 = EDGE_LOOP('',(#844,#850,#851,#852));
#844 = ORIENTED_EDGE('',*,*,#845,.F.);
#845 = EDGE_CURVE('',#639,#598,#846,.T.);
#846 = LINE('',#847,#848);
#847 = CARTESIAN_POINT('',(-21.,42.,32.5));
#848 = VECTOR('',#849,1.);
#849 = DIRECTION('',(0.,-1.,0.));
#850 = ORIENTED_EDGE('',*,*,#638,.F.);
#851 = ORIENTED_EDGE('',*,*,#668,.F.);
#852 = ORIENTED_EDGE('',*,*,#605,.F.);
#853 = FACE_BOUND('',#854,.T.);
#854 = EDGE_LOOP('',(#855));
#855 = ORIENTED_EDGE('',*,*,#856,.F.);
#856 = EDGE_CURVE('',#857,#857,#859,.T.);
#857 = VERTEX_POINT('',#858);
#858 = CARTESIAN_POINT('',(82.7,45.,32.5));
#859 = CIRCLE('',#860,2.7);
#860 = AXIS2_PLACEMENT_3D('',#861,#862,#863);
#861 = CARTESIAN_POINT('',(80.,45.,32.5));
#862 = DIRECTION('',(0.,0.,1.));
#863 = DIRECTION('',(1.,0.,0.));
#864 = PLANE('',#865);
#865 = AXIS2_PLACEMENT_3D('',#866,#867,#868);
#866 = CARTESIAN_POINT('',(0.,0.,32.5));
#867 = DIRECTION('',(0.,0.,1.));
#868 = DIRECTION('',(1.,0.,0.));
#869 = ADVANCED_FACE('',(#870),#888,.F.);
#870 = FACE_BOUND('',#871,.F.);
#871 = EDGE_LOOP('',(#872,#873,#881,#887));
#872 = ORIENTED_EDGE('',*,*,#753,.F.);
#873 = ORIENTED_EDGE('',*,*,#874,.F.);
#874 = EDGE_CURVE('',#875,#754,#877,.T.);
#875 = VERTEX_POINT('',#876);
#876 = CARTESIAN_POINT('',(86.414213562373,-48.,31.085786437627));
#877 = LINE('',#878,#879);
#878 = CARTESIAN_POINT('',(85.,-48.,32.5));
#879 = VECTOR('',#880,1.);
#880 = DIRECTION('',(0.707106781187,0.,-0.707106781187));
#881 = ORIENTED_EDGE('',*,*,#882,.T.);
#882 = EDGE_CURVE('',#875,#330,#883,.T.);
#883 = LINE('',#884,#885);
#884 = CARTESIAN_POINT('',(86.414213562373,-50.,31.085786437627));
#885 = VECTOR('',#886,1.);
#886 = DIRECTION('',(0.,1.,0.));
#887 = ORIENTED_EDGE('',*,*,#339,.T.);
#888 = PLANE('',#889);
#889 = AXIS2_PLACEMENT_3D('',#890,#891,#892);
#890 = CARTESIAN_POINT('',(95.,-50.,22.5));
#891 = DIRECTION('',(-0.707106781187,0.,-0.707106781187));
#892 = DIRECTION('',(0.,1.,0.));
#893 = ADVANCED_FACE('',(#894),#905,.F.);
#894 = FACE_BOUND('',#895,.T.);
#895 = EDGE_LOOP('',(#896,#897,#898,#899));
#896 = ORIENTED_EDGE('',*,*,#882,.T.);
#897 = ORIENTED_EDGE('',*,*,#356,.F.);
#898 = ORIENTED_EDGE('',*,*,#775,.F.);
#899 = ORIENTED_EDGE('',*,*,#900,.T.);
#900 = EDGE_CURVE('',#776,#875,#901,.T.);
#901 = LINE('',#902,#903);
#902 = CARTESIAN_POINT('',(84.207106781187,-48.,32.));
#903 = VECTOR('',#904,1.);
#904 = DIRECTION('',(0.923879532511,-1.64E-15,-0.382683432365));
#905 = PLANE('',#906);
#906 = AXIS2_PLACEMENT_3D('',#907,#908,#909);
#907 = CARTESIAN_POINT('',(84.707106781187,-50.,31.792893218813));
#908 = DIRECTION('',(-0.382683432365,1.E-17,-0.923879532511));
#909 = DIRECTION('',(-8.826834323651E-18,-1.,-7.167727513247E-18));
#910 = ADVANCED_FACE('',(#911),#922,.F.);
#911 = FACE_BOUND('',#912,.F.);
#912 = EDGE_LOOP('',(#913,#914,#920,#921));
#913 = ORIENTED_EDGE('',*,*,#784,.T.);
#914 = ORIENTED_EDGE('',*,*,#915,.F.);
#915 = EDGE_CURVE('',#373,#785,#916,.T.);
#916 = LINE('',#917,#918);
#917 = CARTESIAN_POINT('',(-104.5,-48.,31.));
#918 = VECTOR('',#919,1.);
#919 = DIRECTION('',(0.707106781187,2.6E-15,0.707106781187));
#920 = ORIENTED_EDGE('',*,*,#372,.F.);
#921 = ORIENTED_EDGE('',*,*,#737,.F.);
#922 = PLANE('',#923);
#923 = AXIS2_PLACEMENT_3D('',#924,#925,#926);
#924 = CARTESIAN_POINT('',(-104.,50.,31.5));
#925 = DIRECTION('',(0.707106781187,0.,-0.707106781187));
#926 = DIRECTION('',(0.,-1.,0.));
#927 = ADVANCED_FACE('',(#928),#938,.F.);
#928 = FACE_BOUND('',#929,.F.);
#929 = EDGE_LOOP('',(#930,#931,#932));
#930 = ORIENTED_EDGE('',*,*,#396,.F.);
#931 = ORIENTED_EDGE('',*,*,#915,.T.);
#932 = ORIENTED_EDGE('',*,*,#933,.F.);
#933 = EDGE_CURVE('',#397,#785,#934,.T.);
#934 = LINE('',#935,#936);
#935 = CARTESIAN_POINT('',(-103.,-49.,31.5));
#936 = VECTOR('',#937,1.);
#937 = DIRECTION('',(0.,0.707106781187,0.707106781187));
#938 = PLANE('',#939);
#939 = AXIS2_PLACEMENT_3D('',#940,#941,#942);
#940 = CARTESIAN_POINT('',(-105.,-48.,30.5));
#941 = DIRECTION('',(0.57735026919,0.57735026919,-0.57735026919));
#942 = DIRECTION('',(0.,0.707106781187,0.707106781187));
#943 = ADVANCED_FACE('',(#944),#955,.F.);
#944 = FACE_BOUND('',#945,.F.);
#945 = EDGE_LOOP('',(#946,#947,#953,#954));
#946 = ORIENTED_EDGE('',*,*,#792,.T.);
#947 = ORIENTED_EDGE('',*,*,#948,.F.);
#948 = EDGE_CURVE('',#421,#776,#949,.T.);
#949 = LINE('',#950,#951);
#950 = CARTESIAN_POINT('',(83.,-49.5,31.));
#951 = VECTOR('',#952,1.);
#952 = DIRECTION('',(0.,0.707106781187,0.707106781187));
#953 = ORIENTED_EDGE('',*,*,#420,.F.);
#954 = ORIENTED_EDGE('',*,*,#933,.T.);
#955 = PLANE('',#956);
#956 = AXIS2_PLACEMENT_3D('',#957,#958,#959);
#957 = CARTESIAN_POINT('',(-105.,-49.,31.5));
#958 = DIRECTION('',(0.,0.707106781187,-0.707106781187));
#959 = DIRECTION('',(1.,0.,0.));
#960 = ADVANCED_FACE('',(#961),#972,.F.);
#961 = FACE_BOUND('',#962,.F.);
#962 = EDGE_LOOP('',(#963,#964,#965,#971));
#963 = ORIENTED_EDGE('',*,*,#475,.F.);
#964 = ORIENTED_EDGE('',*,*,#444,.T.);
#965 = ORIENTED_EDGE('',*,*,#966,.T.);
#966 = EDGE_CURVE('',#437,#754,#967,.T.);
#967 = LINE('',#968,#969);
#968 = CARTESIAN_POINT('',(102.37867965644,-49.70710678118,
    12.707106781187));
#969 = VECTOR('',#970,1.);
#970 = DIRECTION('',(0.5,0.707106781187,0.5));
#971 = ORIENTED_EDGE('',*,*,#761,.F.);
#972 = PLANE('',#973);
#973 = AXIS2_PLACEMENT_3D('',#974,#975,#976);
#974 = CARTESIAN_POINT('',(103.,-50.,10.5));
#975 = DIRECTION('',(-0.678598344546,0.678598344546,-0.281084637715));
#976 = DIRECTION('',(-0.382683432365,1.942890293094E-15,0.923879532511)
  );
#977 = ADVANCED_FACE('',(#978),#989,.T.);
#978 = FACE_BOUND('',#979,.T.);
#979 = EDGE_LOOP('',(#980,#981,#982,#988));
#980 = ORIENTED_EDGE('',*,*,#948,.F.);
#981 = ORIENTED_EDGE('',*,*,#428,.T.);
#982 = ORIENTED_EDGE('',*,*,#983,.T.);
#983 = EDGE_CURVE('',#429,#875,#984,.T.);
#984 = LINE('',#985,#986);
#985 = CARTESIAN_POINT('',(85.207106781186,-49.70710678118,
    29.87867965644));
#986 = VECTOR('',#987,1.);
#987 = DIRECTION('',(0.5,0.707106781187,0.5));
#988 = ORIENTED_EDGE('',*,*,#900,.F.);
#989 = PLANE('',#990);
#990 = AXIS2_PLACEMENT_3D('',#991,#992,#993);
#991 = CARTESIAN_POINT('',(83.,-50.,30.5));
#992 = DIRECTION('',(0.281084637715,-0.678598344546,0.678598344546));
#993 = DIRECTION('',(0.923879532511,0.,-0.382683432365));
#994 = ADVANCED_FACE('',(#995),#1001,.T.);
#995 = FACE_BOUND('',#996,.F.);
#996 = EDGE_LOOP('',(#997,#998,#999,#1000));
#997 = ORIENTED_EDGE('',*,*,#983,.T.);
#998 = ORIENTED_EDGE('',*,*,#874,.T.);
#999 = ORIENTED_EDGE('',*,*,#966,.F.);
#1000 = ORIENTED_EDGE('',*,*,#436,.F.);
#1001 = PLANE('',#1002);
#1002 = AXIS2_PLACEMENT_3D('',#1003,#1004,#1005);
#1003 = CARTESIAN_POINT('',(84.292893218813,-49.,31.792893218813));
#1004 = DIRECTION('',(0.5,-0.707106781187,0.5));
#1005 = DIRECTION('',(-0.707106781187,1.942890293094E-16,0.707106781187)
  );
#1006 = ADVANCED_FACE('',(#1007),#1010,.F.);
#1007 = FACE_BOUND('',#1008,.T.);
#1008 = EDGE_LOOP('',(#1009));
#1009 = ORIENTED_EDGE('',*,*,#515,.T.);
#1010 = PLANE('',#1011);
#1011 = AXIS2_PLACEMENT_3D('',#1012,#1013,#1014);
#1012 = CARTESIAN_POINT('',(1.573156E-11,-1.57279E-11,-6.1));
#1013 = DIRECTION('',(0.,0.,1.));
#1014 = DIRECTION('',(1.,0.,0.));
#1015 = ADVANCED_FACE('',(#1016),#1019,.F.);
#1016 = FACE_BOUND('',#1017,.T.);
#1017 = EDGE_LOOP('',(#1018));
#1018 = ORIENTED_EDGE('',*,*,#540,.T.);
#1019 = PLANE('',#1020);
#1020 = AXIS2_PLACEMENT_3D('',#1021,#1022,#1023);
#1021 = CARTESIAN_POINT('',(1.573156E-11,-1.57279E-11,-6.1));
#1022 = DIRECTION('',(0.,0.,1.));
#1023 = DIRECTION('',(1.,0.,0.));
#1024 = ADVANCED_FACE('',(#1025),#1036,.F.);
#1025 = FACE_BOUND('',#1026,.T.);
#1026 = EDGE_LOOP('',(#1027,#1028,#1029,#1035));
#1027 = ORIENTED_EDGE('',*,*,#565,.T.);
#1028 = ORIENTED_EDGE('',*,*,#654,.T.);
#1029 = ORIENTED_EDGE('',*,*,#1030,.T.);
#1030 = EDGE_CURVE('',#647,#590,#1031,.T.);
#1031 = LINE('',#1032,#1033);
#1032 = CARTESIAN_POINT('',(-21.,42.,-2.5));
#1033 = VECTOR('',#1034,1.);
#1034 = DIRECTION('',(0.,-1.,0.));
#1035 = ORIENTED_EDGE('',*,*,#589,.T.);
#1036 = PLANE('',#1037);
#1037 = AXIS2_PLACEMENT_3D('',#1038,#1039,#1040);
#1038 = CARTESIAN_POINT('',(-55.5,-8.92E-15,-2.5));
#1039 = DIRECTION('',(0.,0.,1.));
#1040 = DIRECTION('',(1.,0.,0.));
#1041 = ADVANCED_FACE('',(#1042),#1048,.F.);
#1042 = FACE_BOUND('',#1043,.F.);
#1043 = EDGE_LOOP('',(#1044,#1045,#1046,#1047));
#1044 = ORIENTED_EDGE('',*,*,#845,.F.);
#1045 = ORIENTED_EDGE('',*,*,#646,.T.);
#1046 = ORIENTED_EDGE('',*,*,#1030,.T.);
#1047 = ORIENTED_EDGE('',*,*,#597,.F.);
#1048 = PLANE('',#1049);
#1049 = AXIS2_PLACEMENT_3D('',#1050,#1051,#1052);
#1050 = CARTESIAN_POINT('',(-21.,42.,32.5));
#1051 = DIRECTION('',(-1.,0.,0.));
#1052 = DIRECTION('',(0.,-1.,0.));
#1053 = ADVANCED_FACE('',(#1054),#1057,.F.);
#1054 = FACE_BOUND('',#1055,.T.);
#1055 = EDGE_LOOP('',(#1056));
#1056 = ORIENTED_EDGE('',*,*,#693,.T.);
#1057 = PLANE('',#1058);
#1058 = AXIS2_PLACEMENT_3D('',#1059,#1060,#1061);
#1059 = CARTESIAN_POINT('',(1.573156E-11,-1.57279E-11,-6.1));
#1060 = DIRECTION('',(0.,0.,1.));
#1061 = DIRECTION('',(1.,0.,0.));
#1062 = ADVANCED_FACE('',(#1063),#1066,.F.);
#1063 = FACE_BOUND('',#1064,.T.);
#1064 = EDGE_LOOP('',(#1065));
#1065 = ORIENTED_EDGE('',*,*,#718,.T.);
#1066 = PLANE('',#1067);
#1067 = AXIS2_PLACEMENT_3D('',#1068,#1069,#1070);
#1068 = CARTESIAN_POINT('',(1.573156E-11,-1.57279E-11,-6.1));
#1069 = DIRECTION('',(0.,0.,1.));
#1070 = DIRECTION('',(1.,0.,0.));
#1071 = ADVANCED_FACE('',(#1072),#1091,.F.);
#1072 = FACE_BOUND('',#1073,.F.);
#1073 = EDGE_LOOP('',(#1074,#1082,#1089,#1090));
#1074 = ORIENTED_EDGE('',*,*,#1075,.T.);
#1075 = EDGE_CURVE('',#801,#1076,#1078,.T.);
#1076 = VERTEX_POINT('',#1077);
#1077 = CARTESIAN_POINT('',(-21.3,-45.,28.5));
#1078 = LINE('',#1079,#1080);
#1079 = CARTESIAN_POINT('',(-21.3,-45.,32.5));
#1080 = VECTOR('',#1081,1.);
#1081 = DIRECTION('',(-0.,-0.,-1.));
#1082 = ORIENTED_EDGE('',*,*,#1083,.T.);
#1083 = EDGE_CURVE('',#1076,#1076,#1084,.T.);
#1084 = CIRCLE('',#1085,2.7);
#1085 = AXIS2_PLACEMENT_3D('',#1086,#1087,#1088);
#1086 = CARTESIAN_POINT('',(-24.,-45.,28.5));
#1087 = DIRECTION('',(0.,0.,1.));
#1088 = DIRECTION('',(1.,0.,0.));
#1089 = ORIENTED_EDGE('',*,*,#1075,.F.);
#1090 = ORIENTED_EDGE('',*,*,#800,.F.);
#1091 = CYLINDRICAL_SURFACE('',#1092,2.7);
#1092 = AXIS2_PLACEMENT_3D('',#1093,#1094,#1095);
#1093 = CARTESIAN_POINT('',(-24.,-45.,32.5));
#1094 = DIRECTION('',(0.,0.,1.));
#1095 = DIRECTION('',(1.,0.,-0.));
#1096 = ADVANCED_FACE('',(#1097),#1122,.F.);
#1097 = FACE_BOUND('',#1098,.F.);
#1098 = EDGE_LOOP('',(#1099,#1107,#1115,#1121));
#1099 = ORIENTED_EDGE('',*,*,#1100,.T.);
#1100 = EDGE_CURVE('',#812,#1101,#1103,.T.);
#1101 = VERTEX_POINT('',#1102);
#1102 = CARTESIAN_POINT('',(-97.,42.,0.5));
#1103 = LINE('',#1104,#1105);
#1104 = CARTESIAN_POINT('',(-97.,42.,32.5));
#1105 = VECTOR('',#1106,1.);
#1106 = DIRECTION('',(-0.,-0.,-1.));
#1107 = ORIENTED_EDGE('',*,*,#1108,.T.);
#1108 = EDGE_CURVE('',#1101,#1109,#1111,.T.);
#1109 = VERTEX_POINT('',#1110);
#1110 = CARTESIAN_POINT('',(-97.,-42.,0.5));
#1111 = LINE('',#1112,#1113);
#1112 = CARTESIAN_POINT('',(-97.,42.,0.5));
#1113 = VECTOR('',#1114,1.);
#1114 = DIRECTION('',(0.,-1.,0.));
#1115 = ORIENTED_EDGE('',*,*,#1116,.F.);
#1116 = EDGE_CURVE('',#814,#1109,#1117,.T.);
#1117 = LINE('',#1118,#1119);
#1118 = CARTESIAN_POINT('',(-97.,-42.,32.5));
#1119 = VECTOR('',#1120,1.);
#1120 = DIRECTION('',(-0.,-0.,-1.));
#1121 = ORIENTED_EDGE('',*,*,#811,.F.);
#1122 = PLANE('',#1123);
#1123 = AXIS2_PLACEMENT_3D('',#1124,#1125,#1126);
#1124 = CARTESIAN_POINT('',(-97.,42.,32.5));
#1125 = DIRECTION('',(-1.,0.,0.));
#1126 = DIRECTION('',(0.,-1.,0.));
#1127 = ADVANCED_FACE('',(#1128),#1146,.F.);
#1128 = FACE_BOUND('',#1129,.F.);
#1129 = EDGE_LOOP('',(#1130,#1138,#1144,#1145));
#1130 = ORIENTED_EDGE('',*,*,#1131,.T.);
#1131 = EDGE_CURVE('',#822,#1132,#1134,.T.);
#1132 = VERTEX_POINT('',#1133);
#1133 = CARTESIAN_POINT('',(-29.,42.,0.5));
#1134 = LINE('',#1135,#1136);
#1135 = CARTESIAN_POINT('',(-29.,42.,32.5));
#1136 = VECTOR('',#1137,1.);
#1137 = DIRECTION('',(-0.,-0.,-1.));
#1138 = ORIENTED_EDGE('',*,*,#1139,.T.);
#1139 = EDGE_CURVE('',#1132,#1101,#1140,.T.);
#1140 = LINE('',#1141,#1142);
#1141 = CARTESIAN_POINT('',(-29.,42.,0.5));
#1142 = VECTOR('',#1143,1.);
#1143 = DIRECTION('',(-1.,0.,0.));
#1144 = ORIENTED_EDGE('',*,*,#1100,.F.);
#1145 = ORIENTED_EDGE('',*,*,#821,.F.);
#1146 = PLANE('',#1147);
#1147 = AXIS2_PLACEMENT_3D('',#1148,#1149,#1150);
#1148 = CARTESIAN_POINT('',(-29.,42.,32.5));
#1149 = DIRECTION('',(0.,1.,0.));
#1150 = DIRECTION('',(-1.,0.,0.));
#1151 = ADVANCED_FACE('',(#1152),#1170,.F.);
#1152 = FACE_BOUND('',#1153,.F.);
#1153 = EDGE_LOOP('',(#1154,#1155,#1163,#1169));
#1154 = ORIENTED_EDGE('',*,*,#1116,.T.);
#1155 = ORIENTED_EDGE('',*,*,#1156,.T.);
#1156 = EDGE_CURVE('',#1109,#1157,#1159,.T.);
#1157 = VERTEX_POINT('',#1158);
#1158 = CARTESIAN_POINT('',(-29.,-42.,0.5));
#1159 = LINE('',#1160,#1161);
#1160 = CARTESIAN_POINT('',(-97.,-42.,0.5));
#1161 = VECTOR('',#1162,1.);
#1162 = DIRECTION('',(1.,0.,0.));
#1163 = ORIENTED_EDGE('',*,*,#1164,.F.);
#1164 = EDGE_CURVE('',#830,#1157,#1165,.T.);
#1165 = LINE('',#1166,#1167);
#1166 = CARTESIAN_POINT('',(-29.,-42.,32.5));
#1167 = VECTOR('',#1168,1.);
#1168 = DIRECTION('',(-0.,-0.,-1.));
#1169 = ORIENTED_EDGE('',*,*,#837,.F.);
#1170 = PLANE('',#1171);
#1171 = AXIS2_PLACEMENT_3D('',#1172,#1173,#1174);
#1172 = CARTESIAN_POINT('',(-97.,-42.,32.5));
#1173 = DIRECTION('',(0.,-1.,0.));
#1174 = DIRECTION('',(1.,0.,0.));
#1175 = ADVANCED_FACE('',(#1176),#1187,.F.);
#1176 = FACE_BOUND('',#1177,.F.);
#1177 = EDGE_LOOP('',(#1178,#1179,#1185,#1186));
#1178 = ORIENTED_EDGE('',*,*,#1164,.T.);
#1179 = ORIENTED_EDGE('',*,*,#1180,.T.);
#1180 = EDGE_CURVE('',#1157,#1132,#1181,.T.);
#1181 = LINE('',#1182,#1183);
#1182 = CARTESIAN_POINT('',(-29.,-42.,0.5));
#1183 = VECTOR('',#1184,1.);
#1184 = DIRECTION('',(0.,1.,0.));
#1185 = ORIENTED_EDGE('',*,*,#1131,.F.);
#1186 = ORIENTED_EDGE('',*,*,#829,.F.);
#1187 = PLANE('',#1188);
#1188 = AXIS2_PLACEMENT_3D('',#1189,#1190,#1191);
#1189 = CARTESIAN_POINT('',(-29.,-42.,32.5));
#1190 = DIRECTION('',(1.,0.,0.));
#1191 = DIRECTION('',(0.,1.,0.));
#1192 = ADVANCED_FACE('',(#1193),#1212,.F.);
#1193 = FACE_BOUND('',#1194,.F.);
#1194 = EDGE_LOOP('',(#1195,#1203,#1210,#1211));
#1195 = ORIENTED_EDGE('',*,*,#1196,.T.);
#1196 = EDGE_CURVE('',#857,#1197,#1199,.T.);
#1197 = VERTEX_POINT('',#1198);
#1198 = CARTESIAN_POINT('',(82.7,45.,28.5));
#1199 = LINE('',#1200,#1201);
#1200 = CARTESIAN_POINT('',(82.7,45.,32.5));
#1201 = VECTOR('',#1202,1.);
#1202 = DIRECTION('',(-0.,-0.,-1.));
#1203 = ORIENTED_EDGE('',*,*,#1204,.T.);
#1204 = EDGE_CURVE('',#1197,#1197,#1205,.T.);
#1205 = CIRCLE('',#1206,2.7);
#1206 = AXIS2_PLACEMENT_3D('',#1207,#1208,#1209);
#1207 = CARTESIAN_POINT('',(80.,45.,28.5));
#1208 = DIRECTION('',(0.,0.,1.));
#1209 = DIRECTION('',(1.,0.,0.));
#1210 = ORIENTED_EDGE('',*,*,#1196,.F.);
#1211 = ORIENTED_EDGE('',*,*,#856,.F.);
#1212 = CYLINDRICAL_SURFACE('',#1213,2.7);
#1213 = AXIS2_PLACEMENT_3D('',#1214,#1215,#1216);
#1214 = CARTESIAN_POINT('',(80.,45.,32.5));
#1215 = DIRECTION('',(0.,0.,1.));
#1216 = DIRECTION('',(1.,0.,-0.));
#1217 = ADVANCED_FACE('',(#1218),#1221,.T.);
#1218 = FACE_BOUND('',#1219,.T.);
#1219 = EDGE_LOOP('',(#1220));
#1220 = ORIENTED_EDGE('',*,*,#1083,.T.);
#1221 = PLANE('',#1222);
#1222 = AXIS2_PLACEMENT_3D('',#1223,#1224,#1225);
#1223 = CARTESIAN_POINT('',(28.,-5.57E-15,28.5));
#1224 = DIRECTION('',(0.,0.,1.));
#1225 = DIRECTION('',(1.,0.,0.));
#1226 = ADVANCED_FACE('',(#1227),#1233,.T.);
#1227 = FACE_BOUND('',#1228,.T.);
#1228 = EDGE_LOOP('',(#1229,#1230,#1231,#1232));
#1229 = ORIENTED_EDGE('',*,*,#1108,.T.);
#1230 = ORIENTED_EDGE('',*,*,#1156,.T.);
#1231 = ORIENTED_EDGE('',*,*,#1180,.T.);
#1232 = ORIENTED_EDGE('',*,*,#1139,.T.);
#1233 = PLANE('',#1234);
#1234 = AXIS2_PLACEMENT_3D('',#1235,#1236,#1237);
#1235 = CARTESIAN_POINT('',(-63.,-8.98E-15,0.5));
#1236 = DIRECTION('',(0.,0.,1.));
#1237 = DIRECTION('',(1.,0.,0.));
#1238 = ADVANCED_FACE('',(#1239),#1242,.T.);
#1239 = FACE_BOUND('',#1240,.T.);
#1240 = EDGE_LOOP('',(#1241));
#1241 = ORIENTED_EDGE('',*,*,#1204,.T.);
#1242 = PLANE('',#1243);
#1243 = AXIS2_PLACEMENT_3D('',#1244,#1245,#1246);
#1244 = CARTESIAN_POINT('',(28.,-5.57E-15,28.5));
#1245 = DIRECTION('',(0.,0.,1.));
#1246 = DIRECTION('',(1.,0.,0.));
#1247 = ( GEOMETRIC_REPRESENTATION_CONTEXT(3) 
GLOBAL_UNCERTAINTY_ASSIGNED_CONTEXT((#1251)) 
GLOBAL_UNIT_ASSIGNED_CONTEXT((#1248,#1249,#1250)) REPRESENTATION_CONTEXT
('Context #1','3D Context with UNIT and UNCERTAINTY') );
#1248 = ( LENGTH_UNIT() NAMED_UNIT(*) SI_UNIT(.MILLI.,.METRE.) );
#1249 = ( NAMED_UNIT(*) PLANE_ANGLE_UNIT() SI_UNIT($,.RADIAN.) );
#1250 = ( NAMED_UNIT(*) SI_UNIT($,.STERADIAN.) SOLID_ANGLE_UNIT() );
#1251 = UNCERTAINTY_MEASURE_WITH_UNIT(LENGTH_MEASURE(5.E-05),#1248,
  'distance_accuracy_value','confusion accuracy');
#1252 = PRODUCT_RELATED_PRODUCT_CATEGORY('part',$,(#7));
#1253 = MECHANICAL_DESIGN_GEOMETRIC_PRESENTATION_REPRESENTATION('',(
    #1254),#1247);
#1254 = STYLED_ITEM('color',(#1255),#15);
#1255 = PRESENTATION_STYLE_ASSIGNMENT((#1256,#1264));
#1256 = SURFACE_STYLE_USAGE(.BOTH.,#1257);
#1257 = SURFACE_SIDE_STYLE('',(#1258,#1262));
#1258 = SURFACE_STYLE_FILL_AREA(#1259);
#1259 = FILL_AREA_STYLE('',(#1260));
#1260 = FILL_AREA_STYLE_COLOUR('',#1261);
#1261 = COLOUR_RGB('',0.964705886078,0.784313732475,0.14117647753);
#1262 = SURFACE_STYLE_RENDERING_WITH_PROPERTIES(.NORMAL_SHADING.,#1261,(
    #1263));
#1263 = SURFACE_STYLE_TRANSPARENT(0.699999988079);
#1264 = CURVE_STYLE('',#1265,POSITIVE_LENGTH_MEASURE(0.1),#1266);
#1265 = DRAUGHTING_PRE_DEFINED_CURVE_FONT('continuous');
#1266 = COLOUR_RGB('',9.803921802644E-02,9.803921802644E-02,
  9.803921802644E-02);
ENDSEC;
END-ISO-10303-21;
